# xmcd CD database file
#
# Track frame offsets:
#	182
#	10842
#	30435
#	41347
#	54182
#	71845
#	88630
#	99040
#	115245
#	122775
#	135805
#	151185
#	165710
#	181847
#	195057
#	213425
#	235327
#	254707
#	273750
#	295227
#
# Disc length: 4095 seconds
#
# Revision: 3
# Processed by: cddbd v1.5.2PL0 Copyright (c) Steve Scherf et al.
# Submitted via: CDex 1.92
#
DISCID=fc0ffd14
DTITLE=Alexis Korner - The BBC Radio Sessions
DYEAR=1991
DGENRE=Blues
TTITLE0=Everything She Needs
TTITLE1=(Night Time Is) The Right Time
TTITLE2=Overdrive
TTITLE3=Please, Please, Please
TTITLE4=Back At The Chicken Shack
TTITLE5=Trouble In Mind
TTITLE6=When Will I Be Called A Man
TTITLE7=Wednesday Night Prayer Meeting
TTITLE8=Going Down Slow
TTITLE9=Blue Mink
TTITLE10=Rock Me
TTITLE11=Louisiana Blues
TTITLE12=Stump Blues
TTITLE13=Jesus Is Just Alright With Me
TTITLE14=Looking For Fun
TTITLE15=Vicksburg Blues
TTITLE16=Love Is Gonna Go
TTITLE17=Bring It On Home (To Me)
TTITLE18=Money Honey
TTITLE19=How Can A Poor Man Stand Such Times And Live
EXTD=YEAR: 1991
EXTT0=
EXTT1=
EXTT2=
EXTT3=
EXTT4=
EXTT5=
EXTT6=
EXTT7=
EXTT8=
EXTT9=
EXTT10=
EXTT11=
EXTT12=
EXTT13=
EXTT14=
EXTT15=
EXTT16=
EXTT17=
EXTT18=
EXTT19=
PLAYORDER=
